HIERARCHY
ROOT SpineBase
{
  OFFSET 0.000000 0.000000 0.000000
  CHANNELS 6 Xposition Yposition Zposition Zrotation Xrotation Yrotation
  JOINT SpineMid
  {
    OFFSET -0.000000 32.592226 0.000000
    CHANNELS 3 Zrotation Xrotation Yrotation
    JOINT SpineShoulder
    {
      OFFSET 0.229630 24.184639 -0.862341
      CHANNELS 3 Zrotation Xrotation Yrotation
      JOINT Neck
      {
        OFFSET 0.190514 7.988347 -0.635833
        CHANNELS 3 Zrotation Xrotation Yrotation
        JOINT Head
        {
          OFFSET 5.081357 10.322670 5.646860
          CHANNELS 3 Zrotation Xrotation Yrotation
          End Site
          {
            OFFSET 0 0 0
          }
        }
      }
      JOINT ShoulderLeft
      {
        OFFSET -3.333250 -3.572758 -15.024356
        CHANNELS 3 Zrotation Xrotation Yrotation
        JOINT ElbowLeft
        {
          OFFSET -0.921289 -25.610451 -6.944343
          CHANNELS 3 Zrotation Xrotation Yrotation
          JOINT WristLeft
          {
            OFFSET 5.268859 -24.582242 -3.786817
            CHANNELS 3 Zrotation Xrotation Yrotation
            JOINT HandLeft
            {
              OFFSET 1.755446 -7.579261 0.435261
              CHANNELS 3 Zrotation Xrotation Yrotation
              JOINT HandTipLeft
              {
                OFFSET 2.487324 -6.300028 0.211370
                CHANNELS 3 Zrotation Xrotation Yrotation
                End Site
                {
                  OFFSET 0 0 0
                }
              }
              JOINT ThumbLeft
              {
                OFFSET -0.245795 -0.094512 1.775677
                CHANNELS 3 Zrotation Xrotation Yrotation
                End Site
                {
                  OFFSET 0 0 0
                }
              }
            }
          }
        }
      }
      JOINT ShoulderRight
      {
        OFFSET 4.818387 -6.070319 15.280096
        CHANNELS 3 Zrotation Xrotation Yrotation
        JOINT ElbowRight
        {
          OFFSET -1.620931 -25.250180 9.397541
          CHANNELS 3 Zrotation Xrotation Yrotation
          JOINT WristRight
          {
            OFFSET 8.972159 -23.963926 -0.104296
            CHANNELS 3 Zrotation Xrotation Yrotation
            JOINT HandRight
            {
              OFFSET 1.564050 -6.918356 0.417964
              CHANNELS 3 Zrotation Xrotation Yrotation
              JOINT HandTipRight
              {
                OFFSET 2.754154 -5.858360 -1.635309
                CHANNELS 3 Zrotation Xrotation Yrotation
                End Site
                {
                  OFFSET 0 0 0
                }
              }
              JOINT ThumbRight
              {
                OFFSET -3.182032 -1.142619 -1.313142
                CHANNELS 3 Zrotation Xrotation Yrotation
                End Site
                {
                  OFFSET 0 0 0
                }
              }
            }
          }
        }
      }
    }
  }
  JOINT HipLeft
  {
    OFFSET -0.806928 2.355519 -10.535162
    CHANNELS 3 Zrotation Xrotation Yrotation
    JOINT KneeLeft
    {
      OFFSET -4.779249 -37.166333 -1.140278
      CHANNELS 3 Zrotation Xrotation Yrotation
      JOINT AnkleLeft
      {
        OFFSET -7.716117 -37.524230 3.260950
        CHANNELS 3 Zrotation Xrotation Yrotation
        JOINT FootLeft
        {
          OFFSET 10.623984 -4.164774 -5.789665
          CHANNELS 3 Zrotation Xrotation Yrotation
          End Site
          {
            OFFSET 0 0 0
          }
        }
      }
    }
  }
  JOINT HipRight
  {
    OFFSET 3.484862 -0.319870 3.115096
    CHANNELS 3 Zrotation Xrotation Yrotation
    JOINT KneeRight
    {
      OFFSET 0.354303 -30.450498 7.734829
      CHANNELS 3 Zrotation Xrotation Yrotation
      JOINT AnkleRight
      {
        OFFSET -14.174491 -39.473721 5.609735
        CHANNELS 3 Zrotation Xrotation Yrotation
        JOINT FootRight
        {
          OFFSET 2.827580 -8.120530 -1.202848
          CHANNELS 3 Zrotation Xrotation Yrotation
          End Site
          {
            OFFSET 0 0 0
          }
        }
      }
    }
  }
}
MOTION
Frames: 10
Frame Time: 0.033333
-120.716306 82.407048 305.880068 -0.592862 -2.487269 -78.556083 0.038843 -0.260093 78.542732 -0.182469 -0.103544 -0.008757 1.022225 2.680685 -0.006509 0.000000 0.000000 0.000000 5.123196 2.837880 -1.322000 -2.529259 -2.340372 0.454378 -9.998047 13.859363 4.260164 11.597100 8.724915 7.034213 0.000000 0.000000 0.000000 0.000000 0.000000 0.000000 1.022225 2.680685 -0.006509 14.721253 10.690396 2.445108 6.693554 17.948539 1.085490 -8.963058 -25.234270 -9.112426 0.000000 0.000000 0.000000 0.000000 0.000000 0.000000 0.996391 8.572093 78.262764 -12.466852 -1.693204 0.454460 -46.048985 -20.788637 -7.647162 0.000000 0.000000 0.000000 0.372548 4.140457 79.314203 0.091005 -2.682530 1.437184 10.559667 6.699977 -4.629176 0.000000 0.000000 0.000000
-120.432956 82.458122 305.514814 -0.474310 -2.288422 -78.611509 0.078968 -0.268445 78.603862 -0.179208 -0.090074 -0.006014 0.900985 2.509013 -0.007878 0.000000 0.000000 0.000000 4.361042 2.798106 -1.116417 -3.477645 -1.625711 0.671111 -10.015214 11.572728 3.302360 13.576186 12.231253 8.190866 0.000000 0.000000 0.000000 0.000000 0.000000 0.000000 0.900985 2.509013 -0.007878 14.258886 11.602543 2.711627 4.787600 17.209947 0.998553 -9.427212 -26.495498 -9.505954 0.000000 0.000000 0.000000 0.000000 0.000000 0.000000 1.582239 7.704706 78.406938 -11.899579 -1.057536 0.420797 -45.926004 -20.650302 -8.664212 0.000000 0.000000 0.000000 0.614035 3.267895 79.213100 0.843064 -2.312424 1.537930 9.361802 6.787738 -4.239233 0.000000 0.000000 0.000000
-120.156249 82.420928 305.285324 -0.343846 -2.231625 -78.477503 0.051048 -0.290191 78.476134 -0.194302 -0.105707 -0.003285 0.812453 2.445325 -0.011020 0.000000 0.000000 0.000000 3.743903 2.891980 -0.957639 -4.212077 -1.225317 0.825364 -9.169559 10.316724 2.651516 11.115344 10.281847 7.284435 0.000000 0.000000 0.000000 0.000000 0.000000 0.000000 0.812453 2.445325 -0.011020 13.875727 12.170604 2.892890 3.032026 17.033823 0.928460 -9.768105 -26.833599 -9.535119 0.000000 0.000000 0.000000 0.000000 0.000000 0.000000 1.666229 6.856813 78.346189 -11.143392 -0.856770 0.391681 -34.435326 -16.172472 -6.965351 0.000000 0.000000 0.000000 0.508785 2.171950 78.867809 1.924793 -2.078696 1.704307 7.931292 6.368929 -3.923042 0.000000 0.000000 0.000000
-119.903138 82.313910 305.255678 -0.190912 -2.344975 -78.326104 -0.045370 -0.327651 78.332680 -0.226874 -0.133021 0.000015 0.748356 2.499776 -0.016419 0.000000 0.000000 0.000000 3.324988 2.843520 -0.846910 -4.742604 -0.686991 0.957896 -7.318839 8.946810 1.992663 7.399635 7.744631 5.798356 0.000000 0.000000 0.000000 0.000000 0.000000 0.000000 0.748356 2.499776 -0.016419 13.579026 12.389878 2.981688 1.314075 15.526049 0.749900 -8.136065 -24.916712 -8.394703 0.000000 0.000000 0.000000 0.000000 0.000000 0.000000 1.185905 6.047133 78.242909 -10.246001 -1.092176 0.370661 -25.093537 -12.118723 -5.598942 0.000000 0.000000 0.000000 0.141009 1.585794 78.614824 2.707421 -2.215012 1.869152 7.738663 6.458553 -3.956582 0.000000 0.000000 0.000000
-119.711254 82.204909 305.146348 -0.105663 -2.363941 -78.030165 -0.101800 -0.347351 78.040691 -0.249970 -0.181209 0.001418 0.717229 2.517480 -0.018756 0.000000 0.000000 0.000000 3.023074 2.806180 -0.760909 -5.109796 -0.485086 1.014932 -5.286286 8.961849 1.851857 2.111428 3.736132 3.661629 0.000000 0.000000 0.000000 0.000000 0.000000 0.000000 0.717229 2.517480 -0.018756 13.326368 12.329365 2.996670 -0.386035 14.001993 0.549520 -5.379600 -22.901099 -7.063850 0.000000 0.000000 0.000000 0.000000 0.000000 0.000000 0.979537 5.337491 77.991720 -9.362425 -1.154614 0.356606 -11.121655 -5.538431 -4.255676 0.000000 0.000000 0.000000 0.042648 0.761640 78.150156 3.711862 -1.924753 1.997183 9.693174 6.454266 -4.319995 0.000000 0.000000 0.000000
-119.604830 82.156275 305.024974 -0.109854 -2.382002 -77.995162 -0.141748 -0.342972 78.005148 -0.264340 -0.220617 0.000495 0.739793 2.535194 -0.017992 0.000000 0.000000 0.000000 2.951800 2.680853 -0.723391 -5.357337 -0.288501 1.058996 -3.082616 8.049854 1.482801 -3.288904 1.379643 1.829848 0.000000 0.000000 0.000000 0.000000 0.000000 0.000000 0.739793 2.535194 -0.017992 13.116231 12.156017 2.978037 -1.403057 11.722247 0.265650 -3.510834 -19.526914 -5.735572 0.000000 0.000000 0.000000 0.000000 0.000000 0.000000 0.822422 4.814319 77.991478 -8.490892 -1.237503 0.364823 -6.985953 -3.345919 -4.230477 0.000000 0.000000 0.000000 -0.039023 0.835885 78.128348 3.923531 -2.113210 2.072988 9.417351 5.443885 -4.659339 0.000000 0.000000 0.000000
-119.632316 82.125717 304.906207 -0.223752 -2.368718 -78.127304 -0.132195 -0.326818 78.131145 -0.263857 -0.268444 -0.003207 0.834999 2.574996 -0.013752 0.000000 0.000000 0.000000 3.091191 2.541850 -0.725098 -5.466366 -0.147008 1.079304 -0.540181 6.860077 1.113593 -6.435730 0.909029 1.049385 0.000000 0.000000 0.000000 0.000000 0.000000 0.000000 0.834999 2.574996 -0.013752 12.939450 12.077428 2.978859 -1.366713 9.379495 0.004583 -4.183412 -18.350579 -5.836458 0.000000 0.000000 0.000000 0.000000 0.000000 0.000000 0.717031 4.607323 78.134876 -7.863440 -1.354550 0.382452 -2.649772 -1.050402 -4.294165 0.000000 0.000000 0.000000 -0.141020 1.484338 78.377205 3.696677 -2.950062 2.249912 10.691280 5.937388 -5.352506 0.000000 0.000000 0.000000
-119.704003 82.121938 304.727604 -0.381498 -2.277825 -78.386437 -0.097551 -0.291953 78.381587 -0.249453 -0.315513 -0.008030 0.936531 2.556653 -0.007352 0.000000 0.000000 0.000000 3.276269 2.314404 -0.732980 -5.014778 -0.336416 0.930685 0.077206 6.603416 1.117453 -6.965086 0.550909 0.711822 0.000000 0.000000 0.000000 0.000000 0.000000 0.000000 0.936531 2.556653 -0.007352 12.808865 11.957730 2.963655 -1.030631 7.781377 -0.133494 -2.604161 -16.488089 -5.335098 0.000000 0.000000 0.000000 0.000000 0.000000 0.000000 0.864813 4.566975 78.404865 -7.489547 -1.261588 0.386552 1.044131 0.819794 -4.478096 0.000000 0.000000 0.000000 -0.236281 1.538750 78.607595 4.129016 -3.239468 2.382752 9.740212 2.863311 -6.005635 0.000000 0.000000 0.000000
-119.850853 82.181767 304.506943 -0.609026 -2.152533 -78.813857 -0.051157 -0.249121 78.796743 -0.221259 -0.333234 -0.015681 1.083963 2.484284 0.003526 0.000000 0.000000 0.000000 3.629074 2.128245 -0.777030 -4.192621 -1.077663 0.634150 -0.353949 6.239715 1.172148 -7.369309 2.536849 1.517368 0.000000 0.000000 0.000000 0.000000 0.000000 0.000000 1.083963 2.484284 0.003526 12.632187 11.814381 2.947395 0.657210 7.216264 -0.002097 -1.446016 -17.216627 -5.904068 0.000000 0.000000 0.000000 0.000000 0.000000 0.000000 1.224624 4.725066 78.841341 -7.437611 -1.019155 0.380461 2.900833 1.674811 -4.733799 0.000000 0.000000 0.000000 -0.089740 1.804914 79.043008 4.356231 -3.282967 2.425236 9.582866 -0.056348 -6.725870 0.000000 0.000000 0.000000
-120.025085 82.213158 304.199467 -0.858756 -1.974998 -79.048124 0.012600 -0.185061 79.018289 -0.183220 -0.336503 -0.023420 1.220065 2.359765 0.015729 0.000000 0.000000 0.000000 4.110898 1.893918 -0.859991 -3.401761 -1.881868 0.360908 -1.996696 5.110548 1.079683 -4.136858 5.479336 2.829393 0.000000 0.000000 0.000000 0.000000 0.000000 0.000000 1.220065 2.359765 0.015729 12.505462 11.835968 2.967392 2.550747 7.197768 0.190277 -1.698339 -19.567387 -7.011159 0.000000 0.000000 0.000000 0.000000 0.000000 0.000000 1.806300 5.025075 79.080535 -7.593488 -0.689189 0.381007 3.146271 1.758158 -4.917101 0.000000 0.000000 0.000000 0.269771 2.035882 79.274183 4.662802 -3.170110 2.471511 10.009990 -1.755001 -7.278463 0.000000 0.000000 0.000000
